# FILE Surface_2.obj
#mtllib Surface_2.mtl
# trace_obj Surface_2.obj
#shadow_obj Surface_2.obj

#g __________-_______ ______-________

#usemtl ______-________

v 12016.7 5133.42 0
v 16403.5 5133.42 2063.41
v 11841.4 9608.72 4480.54
v 16403.5 13273.4 3983.6
v 11841.4 9608.72 4480.54
v 16403.5 5133.42 2063.41
v 11841.4 9608.72 4480.54
v 16403.5 13273.4 3983.6
v 12016.7 13273.4 0
v 3253.22 3038.85 -333.423
v 6154.06 5468.13 5078
v 1604.49 5144.9 990.5
v 16403.5 5133.42 2063.41
v 10839.4 5133.42 0
v 3253.22 3038.85 -333.423
v 6154.06 5468.13 5078
v 3253.22 3038.85 -333.423
v 10839.4 5133.42 0
v -3225.83 4620.33 0
v 3253.22 3038.85 -333.423
v 1604.49 5144.9 990.5
v 5448.05 15051.7 23.0076
v 1812.85 14388.8 23.0076
v 1743.41 11461.9 -720.143
v 1812.85 14388.8 23.0076
v -3225.83 13470 23.0076
v 1743.41 11461.9 -720.143
v 1700.1 9386.56 486.064
v 6963.3 13213.5 23.5424
v 1743.41 11461.9 -720.143
v 5448.05 15051.7 23.0076
v 1743.41 11461.9 -720.143
v 6963.3 13213.5 23.5424
v 8368.2 13870 23.0076
v 10664.1 9608.72 123.008
v 10839.4 13273.4 23.0076
v 10664.1 9608.72 123.008
v 6154.06 5468.13 5078
v 10839.4 5133.42 23.0076
v 6154.06 5468.13 5078
v 1637.15 6594.01 763.242
v 1604.49 5144.9 990.5
v 6154.06 5468.13 5078
v 1700.1 9386.56 486.064
v 1637.15 6594.01 763.242
v 6963.3 13213.5 23.5424
v 10664.1 9608.72 123.008
v 8368.2 13870 23.0076
v 10664.1 9608.72 123.008
v 6963.3 13213.5 23.5424
v 6154.06 5468.13 5078
v 6154.06 5468.13 5078
v 6963.3 13213.5 23.5424
v 1700.1 9386.56 486.064
v 6963.3 13213.5 0
v 8203.32 15093.6 0
v 5448.05 15051.7 0
v 16403.5 13273.4 3983.6
v 8203.32 15093.6 0
v 12016.7 13273.4 0
v 8203.32 15093.6 0
v 10839.4 13273.4 0
v 12016.7 13273.4 0
v 8203.32 15093.6 0
v 6963.3 13213.5 0
v 8368.2 13870 0
v 10839.4 13273.4 0
v 8203.32 15093.6 0
v 8368.2 13870 0
v 6963.3 13213.5 0
v 8203.32 15093.6 0
v 5448.05 15051.7 0
v 16403.5 13273.4 0
v 8203.32 15093.6 0
v 12016.7 13273.4 0
v 8203.32 15093.6 0
v 10839.4 13273.4 0
v 12016.7 13273.4 0
v 8203.32 15093.6 0
v 6963.3 13213.5 0
v 8368.2 13870 0
v 10839.4 13273.4 0
v 8203.32 15093.6 0
v 8368.2 13870 0
v 11841.4 9608.72 4480.54
v 10839.4 5133.42 0
v 12016.7 5133.42 0
v 10664.1 9608.72 0
v 11841.4 9608.72 4480.54
v 10839.4 13273.4 0
v 10839.4 5133.42 0
v 11841.4 9608.72 4480.54
v 10664.1 9608.72 0
v 11841.4 9608.72 4480.54
v 12016.7 13273.4 0
v 10839.4 13273.4 0
v -3225.83 4620.33 0
v 1700.1 9386.56 486.064
v -3225.83 13470 0
v 1700.1 9386.56 486.064
v -3225.83 4620.33 0
v 1604.49 5144.9 990.5
v 1743.41 11461.9 -720.143
v -3225.83 13470 0
v 1700.1 9386.56 486.064
# индексы вершин с 1 по 105

s off
vt 6.00837 0
vt 8.20177 1.03171
vt 5.92068 2.24027
# индексы вершин текстуры с 1 по 3

f  1/1 2/2 3/3
vt -6.63668 8.20177
vt -4.80436 5.92068
vt -2.56671 8.20177
# индексы вершин текстуры с 4 по 6

f  4/4 3/5 2/6
vt 5.92068 2.24027
vt 8.20177 1.9918
vt 6.00837 0
# индексы вершин текстуры с 7 по 9

f  3/7 4/8 9/9
vt 1.62661 -0.166712
vt 3.07703 2.539
vt 0.802243 0.49525
# индексы вершин текстуры с 10 по 12

f  10/10 11/11 12/12
vt 8.20177 1.03171
vt 5.41972 0
vt 1.62661 -0.166712
# индексы вершин текстуры с 13 по 15

f  13/13 14/14 10/15
vt 3.07703 2.539
vt 1.62661 -0.166712
vt 5.41972 0
# индексы вершин текстуры с 16 по 18

f  11/16 10/17 14/18
vt -1.61291 2.31017
vt 1.62661 1.51942
vt 0.802243 2.57245
# индексы вершин текстуры с 19 по 21

f  19/19 10/20 12/21
vt 2.72402 7.52586
vt 0.906425 7.1944
vt 0.871707 5.73095
# индексы вершин текстуры с 22 по 24

f  22/22 23/23 24/24
vt 0.906425 7.1944
vt -1.61291 6.73498
vt 0.871707 5.73095
# индексы вершин текстуры с 25 по 27

f  23/25 26/26 24/27
vt 0.850048 4.69328
vt 3.48165 6.60673
vt 0.871707 5.73095
# индексы вершин текстуры с 28 по 30

f  28/28 29/29 24/30
vt 2.72402 7.52586
vt 0.871707 5.73095
vt 3.48165 6.60673
# индексы вершин текстуры с 31 по 33

f  22/31 24/32 29/33
vt 4.1841 6.93501
vt 5.33203 4.80436
vt 5.41972 6.63668
# индексы вершин текстуры с 34 по 36

f  34/34 35/35 36/36
vt 4.80436 0.0615038
vt 2.73407 2.539
vt 2.56671 0.0115038
# индексы вершин текстуры с 37 по 39

f  35/37 38/38 39/39
vt 3.07703 2.73407
vt 0.818575 3.29701
vt 0.802243 2.57245
# индексы вершин текстуры с 40 по 42

f  38/40 41/41 42/42
vt 3.07703 2.73407
vt 0.850048 4.69328
vt 0.818575 3.29701
# индексы вершин текстуры с 43 по 45

f  38/43 28/44 41/45
vt 3.48165 6.60673
vt 5.33203 4.80436
vt 4.1841 6.93501
# индексы вершин текстуры с 46 по 48

f  29/46 35/47 34/48
vt 5.33203 4.80436
vt 3.48165 6.60673
vt 3.07703 2.73407
# индексы вершин текстуры с 49 по 51

f  35/49 29/50 38/51
vt 3.07703 2.73407
vt 3.48165 6.60673
vt 0.850048 4.69328
# индексы вершин текстуры с 52 по 54

f  38/52 29/53 28/54
vt 3.48165 6.60673
vt 4.10166 7.54682
vt 2.72402 7.52586
# индексы вершин текстуры с 55 по 57

f  55/55 56/56 57/57
vt 8.20177 1.9918
vt 4.10166 0
vt 6.00837 0
# индексы вершин текстуры с 58 по 60

f  58/58 56/59 60/60
vt 4.10166 7.54682
vt 5.41972 6.63668
vt 6.00837 6.63668
# индексы вершин текстуры с 61 по 63

f  56/61 62/62 60/63
vt 4.10166 7.54682
vt 3.48165 6.60673
vt 4.1841 6.93501
# индексы вершин текстуры с 64 по 66

f  56/64 55/65 66/66
vt 5.41972 6.63668
vt 4.10166 7.54682
vt 4.1841 6.93501
# индексы вершин текстуры с 67 по 69

f  62/67 56/68 66/69
vt 3.48165 6.60673
vt 4.10166 7.54682
vt 2.72402 7.52586
# индексы вершин текстуры с 70 по 72

f  70/70 71/71 72/72
vt 8.20177 6.63668
vt 4.10166 7.54682
vt 6.00837 6.63668
# индексы вершин текстуры с 73 по 75

f  73/73 71/74 75/75
vt 4.10166 7.54682
vt 5.41972 6.63668
vt 6.00837 6.63668
# индексы вершин текстуры с 76 по 78

f  71/76 77/77 75/78
vt 4.10166 7.54682
vt 3.48165 6.60673
vt 4.1841 6.93501
# индексы вершин текстуры с 79 по 81

f  71/79 70/80 81/81
vt 5.41972 6.63668
vt 4.10166 7.54682
vt 4.1841 6.93501
# индексы вершин текстуры с 82 по 84

f  77/82 71/83 81/84
vt 5.92068 2.24027
vt 5.41972 0
vt 6.00837 0
# индексы вершин текстуры с 85 по 87

f  85/85 86/86 87/87
vt -4.80436 0
vt -4.80436 2.24027
vt -6.63668 0
# индексы вершин текстуры с 88 по 90

f  88/88 85/89 90/90
vt -2.56671 0
vt -4.80436 2.24027
vt -4.80436 0
# индексы вершин текстуры с 91 по 93

f  86/91 85/92 88/93
vt 5.92068 2.24027
vt 6.00837 0
vt 5.41972 0
# индексы вершин текстуры с 94 по 96

f  85/94 95/95 90/96
vt -1.61291 2.31017
vt 0.850048 4.69328
vt -1.61291 6.73498
# индексы вершин текстуры с 97 по 99

f  97/97 98/98 99/99
vt 0.850048 4.69328
vt -1.61291 2.31017
vt 0.802243 2.57245
# индексы вершин текстуры с 100 по 102

f  98/100 97/101 102/102
vt 0.871707 5.73095
vt -1.61291 6.73498
vt 0.850048 4.69328
# индексы вершин текстуры с 103 по 105

f  103/103 99/104 98/105

g __________-_______ ______-___________ FLAT_PART

usemtl ______-___________

v 16403.5 13273.4 -1000
v 16403.5 5133.42 -1000
v 12016.7 5133.42 -1000
v 11841.4 9608.72 -1000
v 12016.7 13273.4 -1000
v 12016.7 13273.4 0
v 16403.5 13273.4 3983.6
v 16403.5 13273.4 -1000
v 12016.7 13273.4 -1000
v 16403.5 13273.4 3983.6
v 16403.5 5133.42 2063.41
v 16403.5 5133.42 -1000
v 16403.5 13273.4 -1000
v 16403.5 5133.42 2063.41
v 12016.7 5133.42 0
v 12016.7 5133.42 -1000
v 16403.5 5133.42 -1000
v 6154.06 5468.13 -1333.42
v 10839.4 5133.42 -1333.42
v 16403.5 5133.42 -1333.42
v 3253.22 3038.85 -1333.42
v -3225.83 4620.33 -1333.42
v 1604.49 5144.9 -1333.42
v 16403.5 5133.42 2063.41
v 3253.22 3038.85 -333.423
v 3253.22 3038.85 -1333.42
v 16403.5 5133.42 -1333.42
v 3253.22 3038.85 -333.423
v -3225.83 4620.33 0
v -3225.83 4620.33 -1333.42
v 3253.22 3038.85 -1333.42
v -3225.83 4620.33 0
v 1604.49 5144.9 990.5
v 1604.49 5144.9 -1333.42
v -3225.83 4620.33 -1333.42
v 1812.85 14388.8 -976.992
v 5448.05 15051.7 -976.992
v 6963.3 13213.5 -976.992
v 8368.2 13870 -976.992
v 10839.4 13273.4 -976.992
v 10664.1 9608.72 -976.992
v 10839.4 5133.42 -976.992
v 6154.06 5468.13 -976.992
v 1604.49 5144.9 -976.992
v 1637.15 6594.01 -976.992
v 1700.1 9386.56 -976.992
v 1743.41 11461.9 -976.992
v -3225.83 13470 -976.992
v -3225.83 13470 23.0076
v 1812.85 14388.8 23.0076
v 1812.85 14388.8 -976.992
v -3225.83 13470 -976.992
v 1812.85 14388.8 23.0076
v 5448.05 15051.7 23.0076
v 5448.05 15051.7 -976.992
v 1812.85 14388.8 -976.992
v 5448.05 15051.7 23.0076
v 6963.3 13213.5 23.5424
v 6963.3 13213.5 -976.992
v 5448.05 15051.7 -976.992
v 6963.3 13213.5 23.5424
v 8368.2 13870 23.0076
v 8368.2 13870 -976.992
v 6963.3 13213.5 -976.992
v 8368.2 13870 23.0076
v 10839.4 13273.4 23.0076
v 10839.4 13273.4 -976.992
v 8368.2 13870 -976.992
v 1604.49 5144.9 990.5
v 1637.15 6594.01 763.242
v 1637.15 6594.01 -976.992
v 1604.49 5144.9 -976.992
v 1637.15 6594.01 763.242
v 1700.1 9386.56 486.064
v 1700.1 9386.56 -976.992
v 1637.15 6594.01 -976.992
v 1700.1 9386.56 486.064
v 1743.41 11461.9 -720.143
v 1743.41 11461.9 -976.992
v 1700.1 9386.56 -976.992
v 1743.41 11461.9 -720.143
v -3225.83 13470 23.0076
v -3225.83 13470 -976.992
v 1743.41 11461.9 -976.992
v 8203.32 15093.6 -1000
v 16403.5 13273.4 -1000
v 12016.7 13273.4 -1000
v 10839.4 13273.4 -1000
v 8368.2 13870 -1000
v 6963.3 13213.5 -1000
v 5448.05 15051.7 -1000
v 5448.05 15051.7 0
v 8203.32 15093.6 0
v 8203.32 15093.6 -1000
v 5448.05 15051.7 -1000
v 8203.32 15093.6 0
v 16403.5 13273.4 3983.6
v 16403.5 13273.4 -1000
v 8203.32 15093.6 -1000
v 16403.5 13273.4 3983.6
v 12016.7 13273.4 0
v 12016.7 13273.4 -1000
v 16403.5 13273.4 -1000
v 12016.7 13273.4 0
v 10839.4 13273.4 0
v 10839.4 13273.4 -1000
v 12016.7 13273.4 -1000
v 10839.4 13273.4 0
v 8368.2 13870 0
v 8368.2 13870 -1000
v 10839.4 13273.4 -1000
v 8368.2 13870 0
v 6963.3 13213.5 0
v 6963.3 13213.5 -1000
v 8368.2 13870 -1000
v 6963.3 13213.5 0
v 5448.05 15051.7 0
v 5448.05 15051.7 -1000
v 6963.3 13213.5 -1000
v 8203.32 15093.6 -1000
v 16403.5 13273.4 -1000
v 12016.7 13273.4 -1000
v 10839.4 13273.4 -1000
v 8368.2 13870 -1000
v 6963.3 13213.5 -1000
v 5448.05 15051.7 -1000
v 5448.05 15051.7 0
v 8203.32 15093.6 0
v 8203.32 15093.6 -1000
v 5448.05 15051.7 -1000
v 8203.32 15093.6 0
v 16403.5 13273.4 0
v 16403.5 13273.4 -1000
v 8203.32 15093.6 -1000
v 16403.5 13273.4 0
v 12016.7 13273.4 0
v 12016.7 13273.4 -1000
v 16403.5 13273.4 -1000
v 12016.7 13273.4 0
v 10839.4 13273.4 0
v 10839.4 13273.4 -1000
v 12016.7 13273.4 -1000
v 10839.4 13273.4 0
v 8368.2 13870 0
v 8368.2 13870 -1000
v 10839.4 13273.4 -1000
v 8368.2 13870 0
v 6963.3 13213.5 0
v 6963.3 13213.5 -1000
v 8368.2 13870 -1000
v 6963.3 13213.5 0
v 5448.05 15051.7 0
v 5448.05 15051.7 -1000
v 6963.3 13213.5 -1000
v 12016.7 13273.4 -1000
v 11841.4 9608.72 -1000
v 12016.7 5133.42 -1000
v 10839.4 5133.42 -1000
v 10664.1 9608.72 -1000
v 10839.4 13273.4 -1000
v 10839.4 13273.4 0
v 12016.7 13273.4 0
v 12016.7 13273.4 -1000
v 10839.4 13273.4 -1000
v 12016.7 5133.42 0
v 10839.4 5133.42 0
v 10839.4 5133.42 -1000
v 12016.7 5133.42 -1000
v 1743.41 11461.9 -1000
v 1700.1 9386.56 -1000
v 1604.49 5144.9 -1000
v -3225.83 4620.33 -1000
v -3225.83 13470 -1000
v -3225.83 13470 0
v 1743.41 11461.9 -720.143
v 1743.41 11461.9 -1000
v -3225.83 13470 -1000
v 1743.41 11461.9 -720.143
v 1700.1 9386.56 486.064
v 1700.1 9386.56 -1000
v 1743.41 11461.9 -1000
v 1700.1 9386.56 486.064
v 1604.49 5144.9 990.5
v 1604.49 5144.9 -1000
v 1700.1 9386.56 -1000
v 1604.49 5144.9 990.5
v -3225.83 4620.33 0
v -3225.83 4620.33 -1000
v 1604.49 5144.9 -1000
v -3225.83 4620.33 0
v -3225.83 13470 0
v -3225.83 13470 -1000
v -3225.83 4620.33 -1000
# индексы вершин с 106 по 298

s off
vt -29.4964 27.3392
vt -11.4076 27.3392
vt -11.4076 20.0279
vt -21.3527 19.7356
vt -29.4964 20.0279
# индексы вершин текстуры с 106 по 110

f  106/106 107/107 108/108 109/109 110/110
vt 26.7039 0
vt 36.4523 6.63934
vt 36.4523 -1.66667
vt 26.7039 -1.66667
# индексы вершин текстуры с 111 по 114

f  111/111 112/112 106/113 110/114
vt -29.4964 6.63934
vt -11.4076 3.43902
vt -11.4076 -1.66667
vt -29.4964 -1.66667
# индексы вершин текстуры с 115 по 118

f  112/115 116/116 107/117 106/118
vt 36.4523 3.43902
vt 26.7039 0
vt 26.7039 -1.66667
vt 36.4523 -1.66667
# индексы вершин текстуры с 119 по 122

f  116/119 120/120 108/121 107/122
vt 7.22939 5.06474
vt -7.1685 7.70055
vt 3.56553 8.57484
vt 7.22939 5.06474
vt 3.56553 8.57484
vt 13.6757 9.11356
vt 7.22939 5.06474
vt 13.6757 9.11356
vt 24.0877 8.55569
vt 36.4523 8.55569
vt 7.22939 5.06474
vt 24.0877 8.55569
# индексы вершин текстуры с 123 по 134

f  126/123 127/124 128/125
f  126/126 128/127 123/128
f  126/129 123/130 124/131
f  125/132 126/133 124/134
vt 36.4523 3.43902
vt 7.22939 -0.555705
vt 7.22939 -2.22237
vt 36.4523 -2.22237
# индексы вершин текстуры с 135 по 138

f  129/135 130/136 126/137 125/138
vt 7.22939 -0.555705
vt -7.1685 0
vt -7.1685 -2.22237
vt 7.22939 -2.22237
# индексы вершин текстуры с 139 по 142

f  130/139 134/140 127/141 126/142
vt -7.1685 0
vt 3.56553 1.65083
vt 3.56553 -2.22237
vt -7.1685 -2.22237
# индексы вершин текстуры с 143 по 146

f  134/143 138/144 128/145 127/146
vt 3.87425 19.1032
vt -7.1685 22.4499
vt 12.1068 25.0862
vt 3.77799 15.6443
vt 3.87425 19.1032
vt 12.1068 25.0862
vt 3.56553 8.57484
vt 3.77799 15.6443
vt 12.1068 25.0862
vt 13.6757 9.11356
vt 3.56553 8.57484
vt 12.1068 25.0862
vt 13.6757 9.11356
vt 12.1068 25.0862
vt 15.474 22.0224
vt 13.6757 9.11356
vt 15.474 22.0224
vt 18.596 23.1167
vt 13.6757 9.11356
vt 18.596 23.1167
vt 23.6979 16.0145
vt 24.0877 8.55569
vt 13.6757 9.11356
vt 23.6979 16.0145
vt 24.0877 22.1223
vt 23.6979 16.0145
vt 18.596 23.1167
# индексы вершин текстуры с 147 по 173

f  152/147 153/148 142/149
f  151/150 152/151 142/152
f  149/153 151/154 142/155
f  148/156 149/157 142/158
f  148/159 142/160 143/161
f  148/162 143/163 144/164
f  148/165 144/166 146/167
f  147/168 148/169 146/170
f  145/171 146/172 144/173
vt -7.1685 0.038346
vt 4.02856 0.038346
vt 4.02856 -1.62832
vt -7.1685 -1.62832
# индексы вершин текстуры с 174 по 177

f  154/174 155/175 141/176 153/177
vt 4.02856 0.038346
vt 12.1068 0.038346
vt 12.1068 -1.62832
vt 4.02856 -1.62832
# индексы вершин текстуры с 178 по 181

f  155/178 159/179 142/180 141/181
vt 33.4483 0.038346
vt 29.3633 0.0392373
vt 29.3633 -1.62832
vt 33.4483 -1.62832
# индексы вершин текстуры с 182 по 185

f  159/182 163/183 143/184 142/185
vt 15.474 0.0392373
vt 18.596 0.038346
vt 18.596 -1.62832
vt 15.474 -1.62832
# индексы вершин текстуры с 186 по 189

f  163/186 167/187 144/188 143/189
vt 18.596 0.038346
vt 24.0877 0.038346
vt 24.0877 -1.62832
vt 18.596 -1.62832
# индексы вершин текстуры с 190 по 193

f  167/190 171/191 145/192 144/193
vt 11.4331 1.65083
vt 14.6534 1.27207
vt 14.6534 -1.62832
vt 11.4331 -1.62832
# индексы вершин текстуры с 194 по 197

f  174/194 175/195 150/196 149/197
vt 14.6534 1.27207
vt 20.859 0.810106
vt 20.859 -1.62832
vt 14.6534 -1.62832
# индексы вершин текстуры с 198 по 201

f  175/198 179/199 151/200 150/201
vt 20.859 0.810106
vt 25.4709 -1.20024
vt 25.4709 -1.62832
vt 20.859 -1.62832
# индексы вершин текстуры с 202 по 205

f  179/202 183/203 152/204 151/205
vt 3.87425 -1.20024
vt -7.1685 0.038346
vt -7.1685 -1.62832
vt 3.87425 -1.62832
# индексы вершин текстуры с 206 по 209

f  183/206 154/207 153/208 152/209
vt 15.474 22.0224
vt 12.1068 25.0862
vt 18.2296 25.1561
vt 18.596 23.1167
vt 15.474 22.0224
vt 18.2296 25.1561
vt 24.0877 22.1223
vt 18.596 23.1167
vt 18.2296 25.1561
vt 36.4523 22.1223
vt 24.0877 22.1223
vt 18.2296 25.1561
# индексы вершин текстуры с 210 по 221

f  195/210 196/211 190/212
f  194/213 195/214 190/215
f  193/216 194/217 190/218
f  191/219 193/220 190/221
vt 12.1068 0
vt 18.2296 0
vt 18.2296 -1.66667
vt 12.1068 -1.66667
# индексы вершин текстуры с 222 по 225

f  197/222 198/223 190/224 196/225
vt 18.2296 0
vt 36.4523 6.63934
vt 36.4523 -1.66667
vt 18.2296 -1.66667
# индексы вершин текстуры с 226 по 229

f  198/226 202/227 191/228 190/229
vt 36.4523 6.63934
vt 26.7039 0
vt 26.7039 -1.66667
vt 36.4523 -1.66667
# индексы вершин текстуры с 230 по 233

f  202/230 206/231 192/232 191/233
vt 26.7039 0
vt 24.0877 0
vt 24.0877 -1.66667
vt 26.7039 -1.66667
# индексы вершин текстуры с 234 по 237

f  206/234 210/235 193/236 192/237
vt 24.0877 0
vt 18.596 0
vt 18.596 -1.66667
vt 24.0877 -1.66667
# индексы вершин текстуры с 238 по 241

f  210/238 214/239 194/240 193/241
vt 18.596 0
vt 15.474 0
vt 15.474 -1.66667
vt 18.596 -1.66667
# индексы вершин текстуры с 242 по 245

f  214/242 218/243 195/244 194/245
vt 29.3633 0
vt 33.4483 0
vt 33.4483 -1.66667
vt 29.3633 -1.66667
# индексы вершин текстуры с 246 по 249

f  218/246 197/247 196/248 195/249
vt 15.474 22.0224
vt 12.1068 25.0862
vt 18.2296 25.1561
vt 18.596 23.1167
vt 15.474 22.0224
vt 18.2296 25.1561
vt 24.0877 22.1223
vt 18.596 23.1167
vt 18.2296 25.1561
vt 36.4523 22.1223
vt 24.0877 22.1223
vt 18.2296 25.1561
# индексы вершин текстуры с 250 по 261

f  230/250 231/251 225/252
f  229/253 230/254 225/255
f  228/256 229/257 225/258
f  226/259 228/260 225/261
vt 12.1068 0
vt 18.2296 0
vt 18.2296 -1.66667
vt 12.1068 -1.66667
# индексы вершин текстуры с 262 по 265

f  232/262 233/263 225/264 231/265
vt 18.2296 0
vt 36.4523 0
vt 36.4523 -1.66667
vt 18.2296 -1.66667
# индексы вершин текстуры с 266 по 269

f  233/266 237/267 226/268 225/269
vt 36.4523 0
vt 26.7039 0
vt 26.7039 -1.66667
vt 36.4523 -1.66667
# индексы вершин текстуры с 270 по 273

f  237/270 241/271 227/272 226/273
vt 26.7039 0
vt 24.0877 0
vt 24.0877 -1.66667
vt 26.7039 -1.66667
# индексы вершин текстуры с 274 по 277

f  241/274 245/275 228/276 227/277
vt 24.0877 0
vt 18.596 0
vt 18.596 -1.66667
vt 24.0877 -1.66667
# индексы вершин текстуры с 278 по 281

f  245/278 249/279 229/280 228/281
vt 18.596 0
vt 15.474 0
vt 15.474 -1.66667
vt 18.596 -1.66667
# индексы вершин текстуры с 282 по 285

f  249/282 253/283 230/284 229/285
vt 29.3633 0
vt 33.4483 0
vt 33.4483 -1.66667
vt 29.3633 -1.66667
# индексы вершин текстуры с 286 по 289

f  253/286 232/287 231/288 230/289
vt -11.4076 18.0657
vt -21.3527 17.7734
vt -29.4964 18.0657
vt -11.4076 18.0657
vt -29.4964 18.0657
vt -21.3527 19.7356
vt -11.4076 20.0279
vt -11.4076 18.0657
vt -21.3527 19.7356
vt -29.4964 20.0279
vt -21.3527 19.7356
vt -29.4964 18.0657
# индексы вершин текстуры с 290 по 301

f  263/290 264/291 265/292
f  263/293 265/294 261/295
f  262/296 263/297 261/298
f  260/299 261/300 265/301
vt 24.0877 0
vt 26.7039 0
vt 26.7039 -1.66667
vt 24.0877 -1.66667
# индексы вершин текстуры с 302 по 305

f  266/302 267/303 260/304 265/305
vt 26.7039 0
vt 24.0877 0
vt 24.0877 -1.66667
vt 26.7039 -1.66667
# индексы вершин текстуры с 306 по 309

f  270/306 271/307 263/308 262/309
vt 3.87425 19.1032
vt 3.77799 15.6443
vt 3.56553 8.57484
vt -7.1685 7.70055
vt -7.1685 22.4499
# индексы вершин текстуры с 310 по 314

f  274/310 275/311 276/312 277/313 278/314
vt -7.1685 0
vt 3.87425 -1.20024
vt 3.87425 -1.66667
vt -7.1685 -1.66667
# индексы вершин текстуры с 315 по 318

f  279/315 280/316 274/317 278/318
vt 25.4709 -1.20024
vt 20.859 0.810106
vt 20.859 -1.66667
vt 25.4709 -1.66667
# индексы вершин текстуры с 319 по 322

f  280/319 284/320 275/321 274/322
vt 20.859 0.810106
vt 11.4331 1.65083
vt 11.4331 -1.66667
vt 20.859 -1.66667
# индексы вершин текстуры с 323 по 326

f  284/323 288/324 276/325 275/326
vt 3.56553 1.65083
vt -7.1685 0
vt -7.1685 -1.66667
vt 3.56553 -1.66667
# индексы вершин текстуры с 327 по 330

f  288/327 292/328 277/329 276/330
vt 10.2674 0
vt 29.9333 0
vt 29.9333 -1.66667
vt 10.2674 -1.66667
# индексы вершин текстуры с 331 по 334

f  292/331 279/332 278/333 277/334

g __________-_______ ______-___________ SMOOTH_PART

usemtl ______-___________

v 12016.7 5133.42 0
v 11841.4 9608.72 4480.54
v 11841.4 9608.72 -1000
v 12016.7 5133.42 -1000
v 11841.4 9608.72 4480.54
v 12016.7 13273.4 0
v 12016.7 13273.4 -1000
v 11841.4 9608.72 -1000
v 1604.49 5144.9 990.5
v 6154.06 5468.13 5078
v 6154.06 5468.13 -1333.42
v 1604.49 5144.9 -1333.42
v 6154.06 5468.13 5078
v 10839.4 5133.42 0
v 10839.4 5133.42 -1333.42
v 6154.06 5468.13 -1333.42
v 10839.4 5133.42 0
v 16403.5 5133.42 2063.41
v 16403.5 5133.42 -1333.42
v 10839.4 5133.42 -1333.42
v 10839.4 13273.4 23.0076
v 10664.1 9608.72 123.008
v 10664.1 9608.72 -976.992
v 10839.4 13273.4 -976.992
v 10664.1 9608.72 123.008
v 10839.4 5133.42 23.0076
v 10839.4 5133.42 -976.992
v 10664.1 9608.72 -976.992
v 10839.4 5133.42 23.0076
v 6154.06 5468.13 5078
v 6154.06 5468.13 -976.992
v 10839.4 5133.42 -976.992
v 6154.06 5468.13 5078
v 1604.49 5144.9 990.5
v 1604.49 5144.9 -976.992
v 6154.06 5468.13 -976.992
v 12016.7 13273.4 0
v 11841.4 9608.72 4480.54
v 11841.4 9608.72 -1000
v 12016.7 13273.4 -1000
v 11841.4 9608.72 4480.54
v 12016.7 5133.42 0
v 12016.7 5133.42 -1000
v 11841.4 9608.72 -1000
v 10839.4 5133.42 0
v 10664.1 9608.72 0
v 10664.1 9608.72 -1000
v 10839.4 5133.42 -1000
v 10664.1 9608.72 0
v 10839.4 13273.4 0
v 10839.4 13273.4 -1000
v 10664.1 9608.72 -1000
# индексы вершин с 299 по 350

vn -0.999233 -0.0391569 0
vn -0.999991 0.00432608 0
vn -0.999991 0.00432608 0
vn -0.999233 -0.0391569 0
vn -0.999991 0.00432608 0
vn -0.998857 0.0478009 0
vn -0.998857 0.0478009 0
vn -0.999991 0.00432608 0
vn -0.0708677 0.997486 0
vn 0.000195183 1 0
vn 0.000195183 1 0
vn -0.0708677 0.997486 0
vn 0.000195183 1 0
vn 0.0356512 0.999364 0
vn 0.0356512 0.999364 0
vn 0.000195183 1 0
vn 0.0356512 0.999364 0
vn 0 1 0
vn 0 1 0
vn 0.0356512 0.999364 0
vn 0.998857 -0.0478009 0
vn 0.999991 -0.00432609 0
vn 0.999991 -0.00432609 0
vn 0.998857 -0.0478009 0
vn 0.999991 -0.00432609 0
vn 0.999233 0.0391569 0
vn 0.999233 0.0391569 0
vn 0.999991 -0.00432609 0
vn -0.0712571 -0.997458 0
vn -0.000195175 -1 0
vn -0.000195175 -1 0
vn -0.0712571 -0.997458 0
vn -0.000195175 -1 0
vn 0.0708677 -0.997486 0
vn 0.0708677 -0.997486 0
vn -0.000195175 -1 0
vn 0.998857 -0.0478009 0
vn 0.999991 -0.00432608 0
vn 0.999991 -0.00432608 0
vn 0.998857 -0.0478009 0
vn 0.999991 -0.00432608 0
vn 0.999233 0.0391569 0
vn 0.999233 0.0391569 0
vn 0.999991 -0.00432608 0
vn -0.999233 -0.0391569 0
vn -0.999991 0.00432608 0
vn -0.999991 0.00432608 0
vn -0.999233 -0.0391569 0
vn -0.999991 0.00432608 0
vn -0.998857 0.0478009 0
vn -0.998857 0.0478009 0
vn -0.999991 0.00432608 0
# индексы нормалей вершин с 1 по 52

s 1
vt -11.4076 0
vt -21.3527 7.46757
vt -21.3527 -1.66667
vt -11.4076 -1.66667
# индексы вершин текстуры с 335 по 338

f  299/335/1 300/336/2 301/337/3 302/338/4
vt -21.3527 7.46757
vt -29.4964 0
vt -29.4964 -1.66667
vt -21.3527 -1.66667
# индексы вершин текстуры с 339 по 342

f  300/339/2 304/340/6 305/341/7 301/342/3
vt 3.56553 1.65083
vt 13.6757 8.46333
vt 13.6757 -2.22237
vt 3.56553 -2.22237
# индексы вершин текстуры с 343 по 346

f  307/343/9 308/344/10 309/345/11 310/346/12
vt 13.6757 8.46333
vt 24.0877 0
vt 24.0877 -2.22237
vt 13.6757 -2.22237
# индексы вершин текстуры с 347 по 350

f  308/347/10 312/348/14 313/349/15 309/350/11
vt 24.0877 0
vt 36.4523 3.43902
vt 36.4523 -2.22237
vt 24.0877 -2.22237
# индексы вершин текстуры с 351 по 354

f  312/351/14 316/352/18 317/353/19 313/354/15
vt 29.4964 0.038346
vt 21.3527 0.205013
vt 21.3527 -1.62832
vt 29.4964 -1.62832
# индексы вершин текстуры с 355 по 358

f  319/355/21 320/356/22 321/357/23 322/358/24
vt 21.3527 0.205013
vt 11.4076 0.038346
vt 11.4076 -1.62832
vt 21.3527 -1.62832
# индексы вершин текстуры с 359 по 362

f  320/359/22 324/360/26 325/361/27 321/362/23
vt 24.0877 0.038346
vt 13.6757 8.46333
vt 13.6757 -1.62832
vt 24.0877 -1.62832
# индексы вершин текстуры с 363 по 366

f  324/363/26 328/364/30 329/365/31 325/366/27
vt 13.6757 8.46333
vt 3.56553 1.65083
vt 3.56553 -1.62832
vt 13.6757 -1.62832
# индексы вершин текстуры с 367 по 370

f  328/367/30 332/368/34 333/369/35 329/370/31
vt -29.4964 0
vt -21.3527 7.46757
vt -21.3527 -1.66667
vt -29.4964 -1.66667
# индексы вершин текстуры с 371 по 374

f  335/371/37 336/372/38 337/373/39 338/374/40
vt -21.3527 7.46757
vt -11.4076 0
vt -11.4076 -1.66667
vt -21.3527 -1.66667
# индексы вершин текстуры с 375 по 378

f  336/375/38 340/376/42 341/377/43 337/378/39
vt -11.4076 0
vt -21.3527 0
vt -21.3527 -1.66667
vt -11.4076 -1.66667
# индексы вершин текстуры с 379 по 382

f  343/379/45 344/380/46 345/381/47 346/382/48
vt -21.3527 0
vt -29.4964 0
vt -29.4964 -1.66667
vt -21.3527 -1.66667
# индексы вершин текстуры с 383 по 386

f  344/383/46 348/384/50 349/385/51 345/386/47
