# FILE Surface.obj
mtllib Surface.mtl

g __________-_______ ______-________

usemtl ______-________

v -3225.83 4620.33 0
v 1700.1 9386.56 486.064
v -3225.83 13470 0
v 1700.1 9386.56 486.064
v -3225.83 4620.33 0
v 1604.49 5144.9 990.5
v 1743.41 11461.9 -720.143
v -3225.83 13470 0
v 1700.1 9386.56 486.064
v 11841.4 9608.72 2151.77
v 10839.4 5133.42 0
v 12016.7 5133.42 0
v 10664.1 9608.72 0
v 11841.4 9608.72 2151.77
v 10839.4 13273.4 0
v 10839.4 5133.42 0
v 11841.4 9608.72 2151.77
v 10664.1 9608.72 0
v 11841.4 9608.72 2151.77
v 12016.7 13273.4 0
v 10839.4 13273.4 0
v 12016.7 5133.42 0
v 16403.5 5133.42 0
v 11841.4 9608.72 2151.77
v 16403.5 13273.4 0
v 11841.4 9608.72 2151.77
v 16403.5 5133.42 0
v 11841.4 9608.72 2151.77
v 16403.5 13273.4 0
v 12016.7 13273.4 0
v 1700.1 9386.56 486.064
v 1637.15 6594.01 763.242
v 4229.55 5891.49 631.332
v 1637.15 6594.01 763.242
v 1604.49 5144.9 990.5
v 4229.55 5891.49 631.332
v 6928.8 13056.7 23.5424
v 1700.1 9386.56 486.064
v 4229.55 5891.49 631.332
v -3225.83 13470 23.0076
v 1743.41 11461.9 -720.143
v 6928.8 13056.7 23.5424
v 1700.1 9386.56 486.064
v 6928.8 13056.7 23.5424
v 1743.41 11461.9 -720.143
v 6928.8 13056.7 23.5424
v 10664.1 9608.72 123.008
v 10839.4 13273.4 23.0076
v 10664.1 9608.72 123.008
v 9300.13 5584.96 171.705
v 10839.4 5133.42 23.0076
v 6928.8 13056.7 23.5424
v 6154.06 5468.13 425.067
v 10664.1 9608.72 123.008
v 6154.06 5468.13 425.067
v 6928.8 13056.7 23.5424
v 4229.55 5891.49 631.332
v 10664.1 9608.72 123.008
v 6154.06 5468.13 425.067
v 9300.13 5584.96 171.705
# индексы вершин с 1 по 60

s off
vt -1.61291 2.31017
vt 0.850048 4.69328
vt -1.61291 6.73498
# индексы вершин текстуры с 1 по 3

f  1/1 2/2 3/3
vt 0.850048 4.69328
vt -1.61291 2.31017
vt 0.802243 2.57245
# индексы вершин текстуры с 4 по 6

f  2/4 1/5 6/6
vt 0.871707 5.73095
vt -1.61291 6.73498
vt 0.850048 4.69328
# индексы вершин текстуры с 7 по 9

f  7/7 3/8 2/9
vt -4.80436 5.92068
vt -2.56671 5.41972
vt -2.56671 6.00837
# индексы вершин текстуры с 10 по 12

f  10/10 11/11 12/12
vt -4.80436 0
vt -4.80436 1.07588
vt -6.63668 0
# индексы вершин текстуры с 13 по 15

f  13/13 10/14 15/15
vt -2.56671 0
vt -4.80436 1.07588
vt -4.80436 0
# индексы вершин текстуры с 16 по 18

f  11/16 10/17 13/18
vt -4.80436 5.92068
vt -6.63668 6.00837
vt -6.63668 5.41972
# индексы вершин текстуры с 19 по 21

f  10/19 20/20 15/21
vt -2.56671 6.00837
vt -2.56671 8.20177
vt -4.80436 5.92068
# индексы вершин текстуры с 22 по 24

f  22/22 23/23 24/24
vt -6.63668 8.20177
vt -4.80436 5.92068
vt -2.56671 8.20177
# индексы вершин текстуры с 25 по 27

f  25/25 24/26 23/27
vt -4.80436 5.92068
vt -6.63668 8.20177
vt -6.63668 6.00837
# индексы вершин текстуры с 28 по 30

f  24/28 25/29 30/30
vt 0.850048 4.69328
vt 0.818575 3.29701
vt 2.11477 2.94574
# индексы вершин текстуры с 31 по 33

f  31/31 32/32 33/33
vt 0.818575 3.29701
vt 0.802243 2.57245
vt 2.11477 2.94574
# индексы вершин текстуры с 34 по 36

f  32/34 35/35 33/36
vt 3.4644 6.52833
vt 0.850048 4.69328
vt 2.11477 2.94574
# индексы вершин текстуры с 37 по 39

f  37/37 31/38 33/39
vt -1.61291 6.73498
vt 0.871707 5.73095
vt 3.4644 6.52833
# индексы вершин текстуры с 40 по 42

f  40/40 41/41 37/42
vt 0.850048 4.69328
vt 3.4644 6.52833
vt 0.871707 5.73095
# индексы вершин текстуры с 43 по 45

f  31/43 37/44 41/45
vt 3.4644 6.52833
vt 5.33203 4.80436
vt 5.41972 6.63668
# индексы вершин текстуры с 46 по 48

f  37/46 47/47 48/48
vt 5.33203 4.80436
vt 4.65006 2.79248
vt 5.41972 2.56671
# индексы вершин текстуры с 49 по 51

f  47/49 50/50 51/51
vt 3.4644 6.52833
vt 3.07703 2.73407
vt 5.33203 4.80436
# индексы вершин текстуры с 52 по 54

f  37/52 53/53 47/54
vt 3.07703 2.73407
vt 3.4644 6.52833
vt 2.11477 2.94574
# индексы вершин текстуры с 55 по 57

f  53/55 37/56 33/57
vt 5.33203 4.80436
vt 3.07703 2.73407
vt 4.65006 2.79248
# индексы вершин текстуры с 58 по 60

f  47/58 53/59 50/60

g __________-_______ ______-___________ FLAT_PART

usemtl ______-___________

v 1743.41 11461.9 -1000
v 1700.1 9386.56 -1000
v 1604.49 5144.9 -1000
v -3225.83 4620.33 -1000
v -3225.83 13470 -1000
v -3225.83 13470 0
v 1743.41 11461.9 -720.143
v 1743.41 11461.9 -1000
v -3225.83 13470 -1000
v 1743.41 11461.9 -720.143
v 1700.1 9386.56 486.064
v 1700.1 9386.56 -1000
v 1743.41 11461.9 -1000
v 1700.1 9386.56 486.064
v 1604.49 5144.9 990.5
v 1604.49 5144.9 -1000
v 1700.1 9386.56 -1000
v 1604.49 5144.9 990.5
v -3225.83 4620.33 0
v -3225.83 4620.33 -1000
v 1604.49 5144.9 -1000
v -3225.83 4620.33 0
v -3225.83 13470 0
v -3225.83 13470 -1000
v -3225.83 4620.33 -1000
v 12016.7 13273.4 -1000
v 11841.4 9608.72 -1000
v 12016.7 5133.42 -1000
v 10839.4 5133.42 -1000
v 10664.1 9608.72 -1000
v 10839.4 13273.4 -1000
v 10839.4 13273.4 0
v 12016.7 13273.4 0
v 12016.7 13273.4 -1000
v 10839.4 13273.4 -1000
v 12016.7 5133.42 0
v 10839.4 5133.42 0
v 10839.4 5133.42 -1000
v 12016.7 5133.42 -1000
v 16403.5 13273.4 -1000
v 16403.5 5133.42 -1000
v 12016.7 5133.42 -1000
v 11841.4 9608.72 -1000
v 12016.7 13273.4 -1000
v 12016.7 13273.4 0
v 16403.5 13273.4 0
v 16403.5 13273.4 -1000
v 12016.7 13273.4 -1000
v 16403.5 13273.4 0
v 16403.5 5133.42 0
v 16403.5 5133.42 -1000
v 16403.5 13273.4 -1000
v 16403.5 5133.42 0
v 12016.7 5133.42 0
v 12016.7 5133.42 -1000
v 16403.5 5133.42 -1000
v 1637.15 6594.01 -976.992
v 1700.1 9386.56 -976.992
v 1743.41 11461.9 -976.992
v -3225.83 13470 -976.992
v 6928.8 13056.7 -976.992
v 10839.4 13273.4 -976.992
v 10664.1 9608.72 -976.992
v 10839.4 5133.42 -976.992
v 9300.13 5584.96 -976.992
v 6154.06 5468.13 -976.992
v 4229.55 5891.49 -976.992
v 1604.49 5144.9 -976.992
v 1604.49 5144.9 990.5
v 1637.15 6594.01 763.242
v 1637.15 6594.01 -976.992
v 1604.49 5144.9 -976.992
v 1637.15 6594.01 763.242
v 1700.1 9386.56 486.064
v 1700.1 9386.56 -976.992
v 1637.15 6594.01 -976.992
v 1700.1 9386.56 486.064
v 1743.41 11461.9 -720.143
v 1743.41 11461.9 -976.992
v 1700.1 9386.56 -976.992
v 1743.41 11461.9 -720.143
v -3225.83 13470 23.0076
v -3225.83 13470 -976.992
v 1743.41 11461.9 -976.992
v 10839.4 5133.42 23.0076
v 9300.13 5584.96 171.705
v 9300.13 5584.96 -976.992
v 10839.4 5133.42 -976.992
v 9300.13 5584.96 171.705
v 6154.06 5468.13 425.067
v 6154.06 5468.13 -976.992
v 9300.13 5584.96 -976.992
v 6154.06 5468.13 425.067
v 4229.55 5891.49 631.332
v 4229.55 5891.49 -976.992
v 6154.06 5468.13 -976.992
v 4229.55 5891.49 631.332
v 1604.49 5144.9 990.5
v 1604.49 5144.9 -976.992
v 4229.55 5891.49 -976.992
# индексы вершин с 61 по 160

s off
vt 3.87425 19.1032
vt 3.77799 15.6443
vt 3.56553 8.57484
vt -7.1685 7.70055
vt -7.1685 22.4499
# индексы вершин текстуры с 61 по 65

f  61/61 62/62 63/63 64/64 65/65
vt -7.1685 0
vt 3.87425 -1.20024
vt 3.87425 -1.66667
vt -7.1685 -1.66667
# индексы вершин текстуры с 66 по 69

f  66/66 67/67 61/68 65/69
vt 25.4709 -1.20024
vt 20.859 0.810106
vt 20.859 -1.66667
vt 25.4709 -1.66667
# индексы вершин текстуры с 70 по 73

f  67/70 71/71 62/72 61/73
vt 20.859 0.810106
vt 11.4331 1.65083
vt 11.4331 -1.66667
vt 20.859 -1.66667
# индексы вершин текстуры с 74 по 77

f  71/74 75/75 63/76 62/77
vt 3.56553 1.65083
vt -7.1685 0
vt -7.1685 -1.66667
vt 3.56553 -1.66667
# индексы вершин текстуры с 78 по 81

f  75/78 79/79 64/80 63/81
vt 10.2674 0
vt 29.9333 0
vt 29.9333 -1.66667
vt 10.2674 -1.66667
# индексы вершин текстуры с 82 по 85

f  79/82 66/83 65/84 64/85
vt -11.4076 18.0657
vt -21.3527 17.7734
vt -29.4964 18.0657
vt -11.4076 18.0657
vt -29.4964 18.0657
vt -21.3527 19.7356
vt -11.4076 20.0279
vt -11.4076 18.0657
vt -21.3527 19.7356
vt -29.4964 20.0279
vt -21.3527 19.7356
vt -29.4964 18.0657
# индексы вершин текстуры с 86 по 97

f  89/86 90/87 91/88
f  89/89 91/90 87/91
f  88/92 89/93 87/94
f  86/95 87/96 91/97
vt 24.0877 0
vt 26.7039 0
vt 26.7039 -1.66667
vt 24.0877 -1.66667
# индексы вершин текстуры с 98 по 101

f  92/98 93/99 86/100 91/101
vt 26.7039 0
vt 24.0877 0
vt 24.0877 -1.66667
vt 26.7039 -1.66667
# индексы вершин текстуры с 102 по 105

f  96/102 97/103 89/104 88/105
vt -29.4964 27.3392
vt -11.4076 27.3392
vt -11.4076 20.0279
vt -21.3527 19.7356
vt -29.4964 20.0279
# индексы вершин текстуры с 106 по 110

f  100/106 101/107 102/108 103/109 104/110
vt 26.7039 0
vt 36.4523 0
vt 36.4523 -1.66667
vt 26.7039 -1.66667
# индексы вершин текстуры с 111 по 114

f  105/111 106/112 100/113 104/114
vt -29.4964 0
vt -11.4076 0
vt -11.4076 -1.66667
vt -29.4964 -1.66667
# индексы вершин текстуры с 115 по 118

f  106/115 110/116 101/117 100/118
vt 36.4523 0
vt 26.7039 0
vt 26.7039 -1.66667
vt 36.4523 -1.66667
# индексы вершин текстуры с 119 по 122

f  110/119 114/120 102/121 101/122
vt 9.399 9.81915
vt 3.56553 8.57484
vt 3.77799 15.6443
vt 9.399 9.81915
vt 3.77799 15.6443
vt 3.87425 19.1032
vt 13.6757 9.11356
vt 9.399 9.81915
vt 3.87425 19.1032
vt 3.87425 19.1032
vt -7.1685 22.4499
vt 15.3973 21.7611
vt 13.6757 9.11356
vt 3.87425 19.1032
vt 15.3973 21.7611
vt 20.6669 9.30827
vt 13.6757 9.11356
vt 15.3973 21.7611
vt 23.6979 16.0145
vt 20.6669 9.30827
vt 15.3973 21.7611
vt 24.0877 8.55569
vt 20.6669 9.30827
vt 23.6979 16.0145
vt 24.0877 22.1223
vt 23.6979 16.0145
vt 15.3973 21.7611
# индексы вершин текстуры с 123 по 149

f  127/123 128/124 118/125
f  127/126 118/127 119/128
f  126/129 127/130 119/131
f  119/132 120/133 121/134
f  126/135 119/136 121/137
f  125/138 126/139 121/140
f  123/141 125/142 121/143
f  124/144 125/145 123/146
f  122/147 123/148 121/149
vt 11.4331 1.65083
vt 14.6534 1.27207
vt 14.6534 -1.62832
vt 11.4331 -1.62832
# индексы вершин текстуры с 150 по 153

f  129/150 130/151 117/152 128/153
vt 14.6534 1.27207
vt 20.859 0.810106
vt 20.859 -1.62832
vt 14.6534 -1.62832
# индексы вершин текстуры с 154 по 157

f  130/154 134/155 118/156 117/157
vt 20.859 0.810106
vt 25.4709 -1.20024
vt 25.4709 -1.62832
vt 20.859 -1.62832
# индексы вершин текстуры с 158 по 161

f  134/158 138/159 119/160 118/161
vt 3.87425 -1.20024
vt -7.1685 0.038346
vt -7.1685 -1.62832
vt 3.87425 -1.62832
# индексы вершин текстуры с 162 по 165

f  138/162 142/163 120/164 119/165
vt 24.0877 0.038346
vt 20.6669 0.286175
vt 20.6669 -1.62832
vt 24.0877 -1.62832
# индексы вершин текстуры с 166 по 169

f  145/166 146/167 125/168 124/169
vt 20.6669 0.286175
vt 13.6757 0.708444
vt 13.6757 -1.62832
vt 20.6669 -1.62832
# индексы вершин текстуры с 170 по 173

f  146/170 150/171 126/172 125/173
vt 13.6757 0.708444
vt 9.399 1.05222
vt 9.399 -1.62832
vt 13.6757 -1.62832
# индексы вершин текстуры с 174 по 177

f  150/174 154/175 127/176 126/177
vt 9.399 1.05222
vt 3.56553 1.65083
vt 3.56553 -1.62832
vt 9.399 -1.62832
# индексы вершин текстуры с 178 по 181

f  154/178 129/179 128/180 127/181

g __________-_______ ______-___________ SMOOTH_PART

usemtl ______-___________

v 12016.7 13273.4 0
v 11841.4 9608.72 2151.77
v 11841.4 9608.72 -1000
v 12016.7 13273.4 -1000
v 11841.4 9608.72 2151.77
v 12016.7 5133.42 0
v 12016.7 5133.42 -1000
v 11841.4 9608.72 -1000
v 10839.4 5133.42 0
v 10664.1 9608.72 0
v 10664.1 9608.72 -1000
v 10839.4 5133.42 -1000
v 10664.1 9608.72 0
v 10839.4 13273.4 0
v 10839.4 13273.4 -1000
v 10664.1 9608.72 -1000
v 12016.7 5133.42 0
v 11841.4 9608.72 2151.77
v 11841.4 9608.72 -1000
v 12016.7 5133.42 -1000
v 11841.4 9608.72 2151.77
v 12016.7 13273.4 0
v 12016.7 13273.4 -1000
v 11841.4 9608.72 -1000
v -3225.83 13470 23.0076
v 6928.8 13056.7 23.5424
v 6928.8 13056.7 -976.992
v -3225.83 13470 -976.992
v 6928.8 13056.7 23.5424
v 10839.4 13273.4 23.0076
v 10839.4 13273.4 -976.992
v 6928.8 13056.7 -976.992
v 10839.4 13273.4 23.0076
v 10664.1 9608.72 123.008
v 10664.1 9608.72 -976.992
v 10839.4 13273.4 -976.992
v 10664.1 9608.72 123.008
v 10839.4 5133.42 23.0076
v 10839.4 5133.42 -976.992
v 10664.1 9608.72 -976.992
# индексы вершин с 161 по 200

vn 0.998857 -0.0478009 0
vn 0.999991 -0.00432608 0
vn 0.999991 -0.00432608 0
vn 0.998857 -0.0478009 0
vn 0.999991 -0.00432608 0
vn 0.999233 0.0391569 0
vn 0.999233 0.0391569 0
vn 0.999991 -0.00432608 0
vn -0.999233 -0.0391569 0
vn -0.999991 0.00432608 0
vn -0.999991 0.00432608 0
vn -0.999233 -0.0391569 0
vn -0.999991 0.00432608 0
vn -0.998857 0.0478009 0
vn -0.998857 0.0478009 0
vn -0.999991 0.00432608 0
vn -0.999233 -0.0391569 0
vn -0.999991 0.00432608 0
vn -0.999991 0.00432608 0
vn -0.999233 -0.0391569 0
vn -0.999991 0.00432608 0
vn -0.998857 0.0478009 0
vn -0.998857 0.0478009 0
vn -0.999991 0.00432608 0
vn 0.0406675 0.999173 0
vn -0.00733949 0.999973 0
vn -0.00733949 0.999973 0
vn 0.0406675 0.999173 0
vn -0.00733949 0.999973 0
vn -0.0553296 0.998468 0
vn -0.0553296 0.998468 0
vn -0.00733949 0.999973 0
vn 0.998857 -0.0478009 0
vn 0.999991 -0.00432608 0
vn 0.999991 -0.00432608 0
vn 0.998857 -0.0478009 0
vn 0.999991 -0.00432608 0
vn 0.999233 0.0391569 0
vn 0.999233 0.0391569 0
vn 0.999991 -0.00432608 0
# индексы нормалей вершин с 1 по 40

s 1
vt -29.4964 0
vt -21.3527 3.58628
vt -21.3527 -1.66667
vt -29.4964 -1.66667
# индексы вершин текстуры с 182 по 185

f  161/182/1 162/183/2 163/184/3 164/185/4
vt -21.3527 3.58628
vt -11.4076 0
vt -11.4076 -1.66667
vt -21.3527 -1.66667
# индексы вершин текстуры с 186 по 189

f  162/186/2 166/187/6 167/188/7 163/189/3
vt -11.4076 0
vt -21.3527 0
vt -21.3527 -1.66667
vt -11.4076 -1.66667
# индексы вершин текстуры с 190 по 193

f  169/190/9 170/191/10 171/192/11 172/193/12
vt -21.3527 0
vt -29.4964 0
vt -29.4964 -1.66667
vt -21.3527 -1.66667
# индексы вершин текстуры с 194 по 197

f  170/194/10 174/195/14 175/196/15 171/197/11
vt -11.4076 0
vt -21.3527 3.58628
vt -21.3527 -1.66667
vt -11.4076 -1.66667
# индексы вершин текстуры с 198 по 201

f  177/198/17 178/199/18 179/200/19 180/201/20
vt -21.3527 3.58628
vt -29.4964 0
vt -29.4964 -1.66667
vt -21.3527 -1.66667
# индексы вершин текстуры с 202 по 205

f  178/202/18 182/203/22 183/204/23 179/205/19
vt -7.1685 0.038346
vt 15.3973 0.0392373
vt 15.3973 -1.62832
vt -7.1685 -1.62832
# индексы вершин текстуры с 206 по 209

f  185/206/25 186/207/26 187/208/27 188/209/28
vt 15.3973 0.0392373
vt 24.0877 0.038346
vt 24.0877 -1.62832
vt 15.3973 -1.62832
# индексы вершин текстуры с 210 по 213

f  186/210/26 190/211/30 191/212/31 187/213/27
vt 29.4964 0.038346
vt 21.3527 0.205013
vt 21.3527 -1.62832
vt 29.4964 -1.62832
# индексы вершин текстуры с 214 по 217

f  190/214/30 194/215/34 195/216/35 191/217/31
vt 21.3527 0.205013
vt 11.4076 0.038346
vt 11.4076 -1.62832
vt 21.3527 -1.62832
# индексы вершин текстуры с 218 по 221

f  194/218/34 198/219/38 199/220/39 195/221/35
